<svg data-name="Layer 1" xmlns="http://www.w3.org/2000/svg" xmlns:xlink="http://www.w3.org/1999/xlink" viewBox="0 0 780 753.8">
    <defs>
        <linearGradient id="a" x1="375" y1="420" x2="780" y2="420" gradientUnits="userSpaceOnUse">
            <stop offset="0" stop-color="#002a0d"/>
            <stop offset="1" stop-color="#018040"/>
        </linearGradient>
        <linearGradient id="b" x1="550" y1="600" x2="1200" y2="320" gradientUnits="userSpaceOnUse">
            <stop offset="0" stop-color="#00d327"/>
            <stop offset="1" stop-color="#00d3a1"/>
        </linearGradient>
        <linearGradient id="c" x1="125" y1="580" x2="250" y2="580" xlink:href="#a"/>
    </defs>
    <path data-name="Side Block" style="fill:url(#a)" d="M780 376.9 498.08 539.33l-125.62-72.52L653.8 304.37l125.62 72.53z"/>
    <path data-name="Main R" d="M1165.68 434 824.39 631c9.46 5.44 184.9 106.75 184.9 106.75l-126.61 73.1-311.52-179.79 342.07-197.5-88.84-51.29v93.11l-126.62 48.45v-360ZM824.39 844.56v-56.77c-32.63-12.66-117.36-46.34-126.62-50v179.86Z" transform="translate(-571.16 -163.87)" style="fill:url(#b)"/>
    <path style="fill:url(#c)" d="m253.23 623.92-126.62-49.98.01-33.65 126.61 73.1v10.53z"/>
    <path style="fill:url(#c)" d="M253.23 311.51v9.48l-126.62 73.1v-34.13l126.62-48.45z"/>
</svg>
