<svg width="100px" height="214px" id="a" xmlns="http://www.w3.org/2000/svg" viewBox="0 0 100 214">
  <defs>
    <style>
      .b,
      .c,
      .d {
        fill: #fff;
      }

      .e {
        fill: #ffb9a0;
      }

      .e,
      .c,
      .d,
      .f,
      .g,
      .h,
      .i,
      .j {
        fill-rule: evenodd;
      }

      .d {
        isolation: isolate;
        opacity: .3;
      }

      .f {
        fill: #2a1000;
      }

      .g {
        fill: #feb9a0;
      }

      .k,
      .i {
        fill: #dc8464;
      }

      .h {
        fill: #ff55f3;
      }
    </style>
  </defs>
  <path class="g"
    d="m38.1,130.1h0c3.3,0,6,6,6,13.3v41.4c0,7.3-2.7,13.3-6,13.3h0c-3.3,0-6-6-6-13.3v-41.4c0-7.3,2.7-13.3,6-13.3Z" />
  <path class="g"
    d="m60.7,130.1h0c3.3,0,6,6,6,13.3v41.4c0,7.3-2.7,13.3-6,13.3h0c-3.3,0-6-6-6-13.3v-41.4c0-7.3,2.7-13.3,6-13.3Z" />
  <path class="g"
    d="m39.9,43.5h18.9c7.8,0,14.2,12.1,14.2,27v36c0,14.9-6.4,27-14.2,27h-18.9c-7.8,0-14.2-12.1-14.2-27v-36c0-14.9,6.4-27,14.2-27Z" />
  <path class="g" d="m36.1,18h28v16s-4.5,14.3-14.3,14.3-13.7-14.3-13.7-14.3v-16Z" />
  <path class="e" d="m45.4,38h9.3c1.1,0,2,1.3,2,3h0c0,1.7-.9,3-2,3h-9.3c-1.1,0-2-1.3-2-3h0c0-1.7.9-3,2-3Z" />
  <ellipse class="b" cx="56" cy="24.9" rx="4" ry="2.8" />
  <ellipse cx="56" cy="24" rx="1.3" ry="2" />
  <ellipse class="k" cx="59.6" cy="71.1" rx="1.3" ry="2" />
  <ellipse class="k" cx="40.2" cy="71" rx="1.3" ry="2" />
  <path class="c"
    d="m49,145.3c3.5,0,4.3,3.9,7.2,2.5,7.6-3.5,12.8-10.8,12.8-19.4s5.9-9.5,2.3-13.3-18.2-8.2-24.9-8.2-17-.3-21.1,4.8-1.5,11.8-1.5,16.7c0,9.9,7,18.2,16.6,20.7s6.5-3.9,8.6-3.9Z" />
  <ellipse class="b" cx="44.1" cy="24.9" rx="4" ry="2.6" />
  <ellipse cx="44.1" cy="23.7" rx="1.3" ry="2" />
  <path class="j" d="m41.1,20h6c.6,0,1,.7,1,1.5h0c0,.8-.4,1.5-1,1.5h-6c-.6,0-1-.7-1-1.5h0c0-.8.4-1.5,1-1.5Z" />
  <path class="j" d="m53,20h6c.6,0,1,.7,1,1.5h0c0,.8-.4,1.5-1,1.5h-6c-.6,0-1-.7-1-1.5h0c0-.8.4-1.5,1-1.5Z" />
  <path class="i" d="m50,24h0c1.1,0,2,1.3,2,3v6c0,1.7-.9,3-2,3h0c-1.1,0-2-1.3-2-3v-6c0-1.7.9-3,2-3Z" />
  <rect class="k" x="48.1" y="23" width="4" height="8" />
  <path class="j" d="m32.1,186h8c2.2,0,4,2.7,4,6h0c0,3.3-1.8,6-4,6h-8c-2.2,0-4-2.7-4-6h0c0-3.3,1.8-6,4-6Z" />
  <rect x="32.1" y="186" width="12" height="12" />
  <rect x="54.7" y="186" width="12" height="12" />
  <rect x="28.1" y="192" width="16" height="6" />
  <rect x="50.7" y="192" width="16" height="6" />
  <path class="j" d="m54.7,186h8c2.2,0,4,2.7,4,6h0c0,3.3-1.8,6-4,6h-8c-2.2,0-4-2.7-4-6h0c0-3.3,1.8-6,4-6Z" />
  <path class="d" d="m32.1,190h4c.7,0,1.3.9,1.3,2h0c0,1.1-.6,2-1.3,2h-4c-.7,0-1.3-.9-1.3-2h0c0-1.1.6-2,1.3-2Z" />
  <path class="d" d="m54.7,190h4c.7,0,1.3.9,1.3,2h0c0,1.1-.6,2-1.3,2h-4c-.7,0-1.3-.9-1.3-2h0c0-1.1.6-2,1.3-2Z" />
  <path class="f"
    d="m36.1,34.4v-16s1-4.8,4-9.6,14.5-5.1,19.3-.3,4.7,9.9,4.7,9.9v35.1l-4.1,7.1-3.2-18.9s3.6-.6,4-4.2,1.6-16.7-.7-18.8-16.5.4-18.7,4.7-3.9,11.1-1.6,14.1,3,3.9,3,3.9l-.4,12.1-6,6.6-.3-25.7Z" />
  <path class="h" d="m33.4,117s-.3-.7-1-.9-1.4,1.2-.7,1.6,1.6,1.7,1.6,1.7l1.8-1.8s.4-1.4-.5-1.5-1.2,1-1.2,1Z" />
  <path class="h" d="m42.1,113s-.3-.7-1-.9-1.4,1.2-.7,1.6,1.6,1.7,1.6,1.7l1.8-1.8s.4-1.4-.5-1.5-1.2,1-1.2,1Z" />
  <path class="h" d="m46.4,121.4s-.3-.7-1-.9-1.4,1.2-.7,1.6,1.6,1.7,1.6,1.7l1.8-1.8s.4-1.4-.5-1.5-1.2,1-1.2,1Z" />
  <path class="h" d="m54.2,114.3s-.3-.7-1-.9-1.4,1.2-.7,1.6,1.6,1.7,1.6,1.7l1.8-1.8s.4-1.4-.5-1.5-1.2,1-1.2,1Z" />
  <path class="h" d="m65.9,122s-.3-.7-1-.9-1.4,1.2-.7,1.6,1.6,1.7,1.6,1.7l1.8-1.8s.4-1.4-.5-1.5-1.2,1-1.2,1Z" />
  <path class="h" d="m57.7,128.8s-.3-.7-1-.9-1.4,1.2-.7,1.6,1.6,1.7,1.6,1.7l1.8-1.8s.4-1.4-.5-1.5-1.2,1-1.2,1Z" />
  <path class="h" d="m39.8,131.3s-.3-.7-1-.9-1.4,1.2-.7,1.6,1.6,1.7,1.6,1.7l1.8-1.8s.4-1.4-.5-1.5-1.2,1-1.2,1Z" />
  <path class="h" d="m29.2,127.3s-.3-.7-1-.9-1.4,1.2-.7,1.6,1.6,1.7,1.6,1.7l1.8-1.8s.4-1.4-.5-1.5-1.2,1-1.2,1Z" />
  <path class="h" d="m41.8,140.6s-.3-.7-1-.9-1.4,1.2-.7,1.6,1.6,1.7,1.6,1.7l1.8-1.8s.4-1.4-.5-1.5-1.2,1-1.2,1Z" />
  <path class="h" d="m55.5,139s-.3-.7-1-.9-1.4,1.2-.7,1.6,1.6,1.7,1.6,1.7l1.8-1.8s.4-1.4-.5-1.5-1.2,1-1.2,1Z" />
</svg>