<?xml version="1.0" encoding="UTF-8"?>
<svg width="141px" height="170px" xmlns="http://www.w3.org/2000/svg" viewBox="0 0 141 170">
  <defs>
    <style>
      .f,
      .g,
      .h {
        fill: #fff;
      }

      .i {
        fill: #ffb9a0;
      }

      .i,
      .g,
      .h,
      .j,
      .k,
      .l,
      .m,
      .n,
      .o,
      .p,
      .q {
        fill-rule: evenodd;
      }

      .h {
        isolation: isolate;
        opacity: .3;
      }

      .j {
        fill: #2a1000;
      }

      .k {
        fill: #feb9a0;
      }

      .r,
      .o {
        fill: #dc8464;
      }

      .l {
        fill: #231f20;
      }

      .m {
        fill: #ff55f3;
      }

      .n {
        fill: #ce453a;
      }

      .p {
        fill: #825f31;
      }
    </style>
  </defs>
  <g id="a">
    <path class="k"
      d="m45.8,45.6h24.6c10.1,0,18.5,14.2,18.5,31.6v42.1c0,17.4-8.3,31.6-18.5,31.6h-24.6c-10.1,0-18.5-14.2-18.5-31.6v-42.1c0-17.4,8.3-31.6,18.5-31.6Z" />
    <path class="k" d="m40.9,15.8h36.4v18.7s-5.8,16.7-18.6,16.7-17.8-16.7-17.8-16.7V15.8Z" />
    <path class="i"
      d="m52.9,39.2h12.1c1.4,0,2.6,1.5,2.6,3.5h0c0,2-1.2,3.5-2.6,3.5h-12.1c-1.4,0-2.6-1.5-2.6-3.5h0c0-2,1.2-3.5,2.6-3.5Z" />
    <ellipse class="f" cx="66.7" cy="23.9" rx="5.2" ry="3.3" />
    <ellipse cx="66.7" cy="22.8" rx="1.7" ry="2.3" />
    <ellipse class="r" cx="71.4" cy="77.9" rx="1.7" ry="2.3" />
    <ellipse class="r" cx="46.2" cy="77.8" rx="1.7" ry="2.3" />
    <ellipse class="f" cx="51.3" cy="23.9" rx="5.2" ry="3" />
    <ellipse cx="51.3" cy="22.5" rx="1.7" ry="2.3" />
    <path class="q"
      d="m47.4,18.2h7.8c.8,0,1.3.8,1.3,1.8h0c0,.9-.5,1.8-1.3,1.8h-7.8c-.8,0-1.3-.8-1.3-1.8h0c0-.9.5-1.8,1.3-1.8Z" />
    <path class="q"
      d="m62.8,18.2h7.8c.8,0,1.3.8,1.3,1.8h0c0,.9-.5,1.8-1.3,1.8h-7.8c-.8,0-1.3-.8-1.3-1.8h0c0-.9.5-1.8,1.3-1.8Z" />
    <path class="o"
      d="m58.9,22.8h0c1.4,0,2.6,1.5,2.6,3.5v7c0,2-1.2,3.5-2.6,3.5h0c-1.4,0-2.6-1.5-2.6-3.5v-7c0-2,1.2-3.5,2.6-3.5Z" />
    <rect class="r" x="56.5" y="21.7" width="5.2" height="9.4" />
    <path class="j"
      d="m40.9,35v-18.7s1.3-5.6,5.2-11.2,18.8-6,25.1-.4c6.2,5.6,6.1,11.6,6.1,11.6v41.1l-5.3,8.3-4.2-22.1s4.7-.7,5.2-4.9,2.1-19.5-.9-22c-3-2.5-21.4.5-24.3,5.5s-5.1,13-2.1,16.5,3.9,4.6,3.9,4.6l-.5,14.2-7.8,7.7s-.4-30.1-.4-30.1Z" />
    <path class="g"
      d="m57.2,112.6c-9.3,0-23.6-.3-29.3,5-5.7,5.3-2.1,12.3-2.1,17.4,0,10.3,9.7,19,23,21.6,13.3,2.6,9-4.1,11.9-4.1h0c4.9.1,6,4.2,10,2.7,10.5-3.6,17.8-11.3,17.8-20.2s8.2-9.9,3.2-13.9c-5-4-25.3-8.6-34.6-8.6" />
    <path class="m"
      d="m39.2,123.2s-.4-.7-1.4-.9-1.9,1.3-1,1.7c1,.4,2.2,1.8,2.2,1.8l2.5-1.9s.6-1.5-.7-1.6-1.7,1-1.7,1h0Z" />
    <path class="m" d="m51.2,119s-.4-.7-1.4-.9-1.9,1.3-1,1.7,2.2,1.8,2.2,1.8l2.5-1.9s.6-1.5-.7-1.6-1.7,1-1.7,1h0Z" />
    <path class="m" d="m57.2,127.8s-.4-.7-1.4-.9-1.9,1.3-1,1.7,2.2,1.8,2.2,1.8l2.5-1.9s.6-1.5-.7-1.6-1.7,1-1.7,1h0Z" />
    <path class="m" d="m68,120.4s-.4-.7-1.4-.9-1.9,1.3-1,1.7,2.2,1.8,2.2,1.8l2.5-1.9s.6-1.5-.7-1.6-1.7,1-1.7,1h0Z" />
    <path class="m" d="m84.3,128.4s-.4-.7-1.4-.9-1.9,1.3-1,1.7,2.2,1.8,2.2,1.8l2.5-1.9s.6-1.5-.7-1.6-1.7,1-1.7,1h0Z" />
    <path class="m" d="m72.9,135.5s-.4-.7-1.4-.9-1.9,1.3-1,1.7,2.2,1.8,2.2,1.8l2.5-1.9s.6-1.5-.7-1.6-1.7,1-1.7,1h0Z" />
    <path class="m" d="m48.1,138.1s-.4-.7-1.4-.9-1.9,1.3-1,1.7,2.2,1.8,2.2,1.8l2.5-1.9s.6-1.5-.7-1.6-1.7,1-1.7,1h0Z" />
    <path class="m"
      d="m33.3,133.9s-.4-.7-1.4-.9-1.9,1.3-1,1.7c1,.4,2.2,1.8,2.2,1.8l2.5-1.9s.6-1.5-.7-1.6-1.7,1-1.7,1h0Z" />
    <path class="m" d="m50.8,147.8s-.4-.7-1.4-.9-1.9,1.3-1,1.7,2.2,1.8,2.2,1.8l2.5-1.9s.6-1.5-.7-1.6-1.7,1-1.7,1h0Z" />
    <path class="m" d="m69.8,146.1s-.4-.7-1.4-.9-1.9,1.3-1,1.7,2.2,1.8,2.2,1.8l2.5-1.9s.6-1.5-.7-1.6-1.7,1-1.7,1h0Z" />
  </g>
  <g id="b">
    <path class="k"
      d="m10.6,87.2h0c-2.6-2.2-2.2-6.9.9-10.5l18.8-21.6c3.1-3.6,7.8-4.7,10.4-2.5h0c2.6,2.2,2.2,6.9-.9,10.5l-18.8,21.6c-3.1,3.6-7.8,4.7-10.4,2.5Z" />
    <path class="k"
      d="m28.4,108.1h0c-3.1,1.6-6.8.5-8.4-2.5l-9.5-17.8c-1.6-3-.4-6.6,2.7-8.2h0c3.1-1.6,6.8-.5,8.4,2.5l9.5,17.8c1.6,3,.4,6.6-2.7,8.2Z" />
  </g>
  <g id="c">
    <path class="p"
      d="m126.3,106.1h0c-.4,2.6-4.2,4.3-8.6,4l-108.9-8.7c-4.4-.3-7.7-2.8-7.4-5.3h0c.4-2.6,4.2-4.3,8.6-4l108.9,8.7c4.4.3,7.7,2.8,7.4,5.3Z" />
    <path class="n"
      d="m119.5,84.3c7.7,10,30,52.4-3.8,43.6-33.8-8.9-46.2,4.8-42.4-3.5s4.4-10.1,3.2-22c-1.2-11.9-8-28.3.5-21.6,16.1,12.7,34.6-6.5,42.4,3.5Z" />
    <path class="g"
      d="m110.1,88.3c5.3,6.5-13.8,9.3-8.9,20.2,5,10.9-24.5,10.8-21.9,5.5s3-6.4,2.1-14.2c-.9-8.6-5.4-18.2.3-13.9,10.8,8.2,23.1-4.1,28.4,2.4Z" />
    <path class="l" d="m118.9,112.1c0-1.3.7-11.3,0-12.3s-4.1-2.6-4.1-1-.2,9.9,0,12.5c.1,2.6,4,2.1,4.1.9Z" />
  </g>
  <g id="d">
    <path class="k"
      d="m96.8,110.2h0c4,2,4.9,8.1,2.1,13.6l-17.2,33.2c-2.8,5.5-8.4,8.4-12.4,6.4h0c-4-2-4.9-8.1-2.1-13.6l17.2-33.2c2.8-5.5,8.4-8.4,12.4-6.4Z" />
    <path class="k"
      d="m21.9,115.9h0c4-2,9.4.4,12,5.5l15.7,30.6c2.6,5.1,1.4,10.8-2.6,12.8h0c-4,2-9.4-.4-12-5.5l-15.7-30.6c-2.6-5.1-1.4-10.8,2.6-12.8Z" />
    <path class="k"
      d="m105.4,82.1h0c-2.2,1.7-6,.6-8.5-2.5l-15-18.7c-2.5-3.1-2.7-7-.5-8.7h0c2.2-1.7,6-.6,8.5,2.5l15,18.7c2.5,3.1,2.7,7,.5,8.7Z" />
    <path class="k"
      d="m105.3,76.2h0c2.3,1.6,2.3,5.4.1,8.5l-13.4,18.7c-2.2,3.1-5.9,4.3-8.1,2.7h0c-2.3-1.6-2.3-5.4-.1-8.5l13.4-18.7c2.2-3.1,5.9-4.3,8.1-2.7Z" />
    <path class="k"
      d="m25.8,107.2h0c-3.7.2-6.8-.4-6.8-1.3l-.3-5.5c0-.9,2.9-1.8,6.7-2h0c3.7-.2,6.8.4,6.8,1.3l.3,5.5c0,.9-2.9,1.8-6.7,2Z" />
  </g>
  <g id="e">
    <path class="q"
      d="m41.9,146.9h0c4.7,0,8.5,3.8,8.5,8.4v5.6c0,4.6-3.8,8.4-8.5,8.4h0c-4.7,0-8.5-3.8-8.5-8.4v-5.6c0-4.6,3.8-8.4,8.5-8.4Z" />
    <path class="h"
      d="m39.1,150.7h5.7c1,0,1.9.8,1.9,1.9h0c0,1-.8,1.9-1.9,1.9h-5.7c-1,0-1.9-.8-1.9-1.9h0c0-1,.8-1.9,1.9-1.9Z" />
    <path class="h"
      d="m39.1,156.3h5.7c1,0,1.9.8,1.9,1.9h0c0,1-.8,1.9-1.9,1.9h-5.7c-1,0-1.9-.8-1.9-1.9h0c0-1,.8-1.9,1.9-1.9Z" />
    <path class="h"
      d="m39.1,161.9h5.7c1,0,1.9.8,1.9,1.9h0c0,1-.8,1.9-1.9,1.9h-5.7c-1,0-1.9-.8-1.9-1.9h0c0-1,.8-1.9,1.9-1.9Z" />
    <path class="q"
      d="m74.1,146.9h0c4.7,0,8.5,3.8,8.5,8.4v5.6c0,4.6-3.8,8.4-8.5,8.4h0c-4.7,0-8.5-3.8-8.5-8.4v-5.6c0-4.6,3.8-8.4,8.5-8.4Z" />
    <path class="h"
      d="m71.2,150.7h5.7c1,0,1.9.8,1.9,1.9h0c0,1-.8,1.9-1.9,1.9h-5.7c-1,0-1.9-.8-1.9-1.9h0c0-1,.8-1.9,1.9-1.9Z" />
    <path class="h"
      d="m71.2,156.3h5.7c1,0,1.9.8,1.9,1.9h0c0,1-.8,1.9-1.9,1.9h-5.7c-1,0-1.9-.8-1.9-1.9h0c0-1,.8-1.9,1.9-1.9Z" />
    <path class="h"
      d="m71.2,161.9h5.7c1,0,1.9.8,1.9,1.9h0c0,1-.8,1.9-1.9,1.9h-5.7c-1,0-1.9-.8-1.9-1.9h0c0-1,.8-1.9,1.9-1.9Z" />
  </g>
</svg>